<svg xmlns="http://www.w3.org/2000/svg" xmlns:xlink="http://www.w3.org/1999/xlink" viewBox="0 0 474.7 90.8" xml:space="preserve">
	<path fill="#EB2136" d="M459.7,40.9H447v-0.6c0.1-4.7,1.8-9,6.5-9s6.2,3.8,6.2,8.8C459.7,40.1,459.7,40.9,459.7,40.9z M474.5,69.6 L471.6,59c-6.1,1.5-12.2,2.3-16.4,2.3c-5.6,0-8-2.8-8-9.7h27.1c0.3-2.8,0.4-6.1,0.4-8.6c0-16.7-9-23.4-20-23.4 c-15.5,0-23,9.1-23,27.4c0,17.7,4.9,26.8,21.3,26.8C460.1,73.9,466.9,72.8,474.5,69.6 M386.5,20.9v35.3c0,12.4,5.6,17.6,13.6,17.6 c4.9,0,9-1.3,14.8-6l1.1,4.8h13V20.9h-15.7v35.4c-2.4,2.2-5,3.2-6.8,3.2c-3,0-4.3-3.2-4.3-7.4V20.9H386.5L386.5,20.9z M361.2,34 c1.8,0,3.9,1.2,6.3,3.3v18.8c-2.4,2.2-4.9,3.4-6.6,3.4c-3.6,0-5.5-3.5-5.5-12.4C355.4,37.5,357.6,34,361.2,34 M355.4,73.9 c3.9,0,7.7-1.5,12.1-4.9v21.8h15.7V20.9h-13l-1.1,4.8c-5.1-4.4-8.1-6.1-12.5-6.1c-9.2,0-17.3,8.7-17.3,27.9 C339.2,65.8,346.1,73.9,355.4,73.9 M336.6,20.9h-15.7v51.7h15.7V20.9z M336.6,0.4h-15.7v13.8h15.7V0.4z M318,36.2V19.6h-2.1 c-4.2,0-6,1.3-11.6,7.4l-1.3-6.1h-12.6v51.7h15.7V39.8c3-2.5,5-3.6,8.5-3.6H318L318,36.2z M289.4,0.8C286.5,0.2,284,0,281.3,0 c-11.2,0-16.2,5.6-16.2,16.3v4.6h-5.4v12.2h5.4v39.5h15.7V33.1h6.7V20.9h-6.8v-4.3c0-3.3,1.1-5,4.2-5c1.2,0,2.6,0.1,3.5,0.3 L289.4,0.8z M241.3,56.1c-2.4,2.2-4.9,3.4-6.6,3.4c-3.6,0-5.5-3.5-5.5-12.4c0-9.6,2.2-13.1,5.8-13.1c1.8,0,3.9,1.2,6.3,3.3V56.1z M257,72.7V20.9h-13l-1.1,5c-5.1-4.4-8.1-6.3-12.5-6.3c-9.2,0-17.3,8.7-17.3,27.9c0,18.2,6.8,26.3,16.1,26.3c3.9,0,7.8-1.3,13.7-6 l1,4.8L257,72.7L257,72.7z"/>
	<path fill="#1D1D1B" d="M190.8,40.9h-12.7v-0.6c0.1-4.7,1.8-9,6.5-9s6.2,3.8,6.2,8.8V40.9L190.8,40.9z M205.7,69.6L202.8,59 c-6.1,1.5-12.2,2.3-16.4,2.3c-5.6,0-8-2.8-8-9.7h27.1c0.3-2.8,0.4-6.1,0.4-8.6c0-16.7-9-23.4-20-23.4c-15.5,0-23,9.1-23,27.4 c0,17.7,4.9,26.8,21.3,26.8C191.2,73.9,198,72.8,205.7,69.6 M159.7,72.7V37.3c0-12.4-5.6-17.7-13.6-17.7c-4.9,0-9,1.4-14.8,6.1 l-1.1-4.8h-13v51.7h15.7V37.2c2.4-2.2,5-3.2,6.7-3.2c3.1,0,4.4,3.2,4.4,7.4v31.2L159.7,72.7L159.7,72.7z M71.1,20.9v35.3 c0,12.4,5.6,17.6,13.6,17.6c4.9,0,9-1.3,14.8-6l1.1,4.8h13V20.9H97.9v35.4c-2.4,2.2-5,3.2-6.8,3.2c-3,0-4.3-3.2-4.3-7.4V20.9H71.1 L71.1,20.9z M53,40.9H40.3v-0.6c0.1-4.7,1.8-9,6.5-9s6.2,3.8,6.2,8.8C53,40.1,53,40.9,53,40.9z M67.8,69.6L64.9,59 c-6.1,1.5-12.2,2.3-16.4,2.3c-5.6,0-8-2.8-8-9.7h27.1c0.3-2.8,0.4-6.1,0.4-8.6c0-16.7-9-23.4-20-23.4c-15.5,0-23,9.1-23,27.4 c0,17.7,4.9,26.8,21.3,26.8C53.4,73.9,60.2,72.8,67.8,69.6 M21.8,67.1V20.9H6.1v47.5c0,5.1-1.1,9-6.1,14l9.4,8.3 C18.5,84.3,21.8,78,21.8,67.1 M21.8,0.4H6.1v13.8h15.7V0.4z"/>
</svg>
